# Blender 3.6.2
# www.blender.org
mtllib Corridor.mtl
o Plane
v -15.000000 0.000000 5.000000
v 15.000000 0.000000 5.000000
v -15.000000 0.000000 -5.000000
v 15.000000 0.000000 -5.000000
vn -0.0000 1.0000 -0.0000
vt 0.000000 0.000000
vt 1.000000 0.000000
vt 1.000000 1.000000
vt 0.000000 1.000000
s 1
usemtl Floor
f 1/1/1 2/2/1 4/3/1 3/4/1
o Plane.001
v -15.000000 4.000001 -5.000000
v 15.000000 4.000001 -5.000000
v -15.000000 3.999998 5.000000
v 15.000000 3.999998 5.000000
vn -0.0000 -1.0000 -0.0000
vt 0.000000 0.000000
vt 1.000000 0.000000
vt 1.000000 1.000000
vt 0.000000 1.000000
s 1
usemtl Ceiling
f 5/5/2 6/6/2 8/7/2 7/8/2
o Plane.002
v -15.000000 5.000000 5.000000
v 15.000000 5.000000 5.000000
v -15.000000 0.000000 5.000000
v 15.000000 0.000000 5.000000
v -14.000001 3.000000 5.000000
v -14.000001 0.000000 5.000000
v -12.000001 0.000000 5.000000
v -12.000001 3.000000 5.000000
v -4.000000 0.000000 5.000000
v -6.000000 0.000000 5.000000
v -6.000000 3.000000 5.000000
v -4.000000 3.000000 5.000000
v 2.000000 3.000000 5.000000
v 4.000000 3.000000 5.000000
v 4.000000 0.000000 5.000000
v 2.000000 0.000000 5.000000
vn -0.0000 -0.0000 -1.0000
vt 0.300000 1.000000
vt 0.100000 1.000000
vt 0.100000 0.400000
vt 0.033333 0.400000
vt 0.033333 1.000000
vt 0.000000 1.000000
vt 0.000000 0.000000
vt 1.000000 0.000000
vt 1.000000 1.000000
vt 0.633333 1.000000
vt 0.633333 0.400000
vt 0.566667 0.400000
vt 0.566667 1.000000
vt 0.366667 1.000000
vt 0.366667 0.400000
vt 0.300000 0.400000
s 1
usemtl Walls
f 18/9/3 15/10/3 16/11/3 13/12/3 14/13/3 11/14/3 9/15/3 10/16/3 12/17/3 23/18/3 22/19/3 21/20/3 24/21/3 17/22/3 20/23/3 19/24/3
o Plane.003
v 15.000000 5.000000 -5.000005
v -15.000000 5.000000 -4.999995
v 15.000000 0.000000 -5.000005
v -15.000000 0.000000 -4.999995
v 2.000000 3.000000 -5.000000
v 4.000000 3.000000 -5.000001
v 4.000000 0.000000 -5.000001
v 2.000000 0.000000 -5.000001
v -4.000000 0.000000 -4.999999
v -6.000000 0.000000 -4.999998
v -4.000000 3.000000 -4.999999
v -6.000000 3.000000 -4.999998
v -14.000001 0.000000 -4.999996
v -12.000001 0.000000 -4.999996
v -12.000001 3.000000 -4.999996
v -14.000001 3.000000 -4.999995
vn -0.0000 -0.0000 1.0000
vt 0.633333 0.400000
vt 0.633333 1.000000
vt 0.433333 1.000000
vt 0.433333 0.400000
vt 0.366667 0.400000
vt 0.366667 1.000000
vt 0.000000 1.000000
vt 0.000000 0.000000
vt 1.000000 0.000000
vt 1.000000 1.000000
vt 0.966667 1.000000
vt 0.966667 0.400000
vt 0.900000 0.400000
vt 0.900000 1.000000
vt 0.700000 1.000000
vt 0.700000 0.400000
s 1
usemtl Walls
f 35/25/4 33/26/4 32/27/4 29/28/4 30/29/4 31/30/4 27/31/4 25/32/4 26/33/4 28/34/4 37/35/4 40/36/4 39/37/4 38/38/4 34/39/4 36/40/4
o Cube
v 2.000000 0.000000 5.000000
v 2.000000 0.000000 6.000000
v 2.000000 3.000000 6.000000
v 2.000000 3.000000 5.000000
v 2.000000 0.000000 -6.000000
v 2.000000 0.000000 -5.000000
v 2.000000 3.000000 -6.000000
v 2.000000 3.000000 -5.000000
v 4.000000 0.000000 6.000000
v 4.000000 0.000000 5.000000
v 4.000000 3.000000 5.000000
v 4.000000 3.000000 6.000000
v 4.000000 0.000000 -6.000000
v 4.000000 0.000000 -5.000000
v 4.000000 3.000000 -6.000000
v 4.000000 3.000000 -5.000000
vn 1.0000 -0.0000 -0.0000
vn -0.0000 -0.0000 1.0000
vn -1.0000 -0.0000 -0.0000
vn -0.0000 -0.0000 -1.0000
vn -0.0000 1.0000 -0.0000
vn -0.0000 -1.0000 -0.0000
vt 0.625000 0.250000
vt 0.625000 0.229167
vt 0.375000 0.229167
vt 0.375000 0.250000
vt 0.375000 0.020833
vt 0.625000 0.020833
vt 0.625000 0.000000
vt 0.375000 0.000000
vt 0.375000 0.500000
vt 0.625000 0.500000
vt 0.625000 0.729167
vt 0.375000 0.729167
vt 0.375000 0.750000
vt 0.625000 0.750000
vt 0.375000 0.520833
vt 0.625000 0.520833
vt 0.375000 1.000000
vt 0.625000 1.000000
vt 0.125000 0.729167
vt 0.125000 0.750000
vt 0.125000 0.500000
vt 0.125000 0.520833
vt 0.875000 0.729167
vt 0.875000 0.750000
vt 0.875000 0.520833
vt 0.875000 0.500000
s 0
usemtl Black
f 47/41/5 48/42/5 46/43/5 45/44/5
f 41/45/5 44/46/5 43/47/5 42/48/5
f 45/44/6 53/49/6 55/50/6 47/41/6
f 51/51/7 50/52/7 49/53/7 52/54/7
f 54/55/7 56/56/7 55/50/7 53/49/7
f 49/53/8 42/57/8 43/58/8 52/54/8
f 50/52/9 41/59/9 42/60/9 49/53/9
f 45/61/9 46/62/9 54/55/9 53/49/9
f 44/63/10 51/51/10 52/54/10 43/64/10
f 56/56/10 48/65/10 47/66/10 55/50/10
o Cube.001
v -6.000000 0.000000 5.000000
v -6.000000 0.000000 6.000000
v -6.000000 3.000000 6.000000
v -6.000000 3.000000 5.000000
v -6.000000 0.000000 -6.000000
v -6.000000 0.000000 -5.000000
v -6.000000 3.000000 -6.000000
v -6.000000 3.000000 -5.000000
v -4.000000 0.000000 6.000000
v -4.000000 0.000000 5.000000
v -4.000000 3.000000 5.000000
v -4.000000 3.000000 6.000000
v -4.000000 0.000000 -6.000000
v -4.000000 0.000000 -5.000000
v -4.000000 3.000000 -6.000000
v -4.000000 3.000000 -5.000000
vn 1.0000 -0.0000 -0.0000
vn -0.0000 -0.0000 1.0000
vn -1.0000 -0.0000 -0.0000
vn -0.0000 -0.0000 -1.0000
vn -0.0000 1.0000 -0.0000
vn -0.0000 -1.0000 -0.0000
vt 0.625000 0.250000
vt 0.625000 0.229167
vt 0.375000 0.229167
vt 0.375000 0.250000
vt 0.375000 0.020833
vt 0.625000 0.020833
vt 0.625000 0.000000
vt 0.375000 0.000000
vt 0.375000 0.500000
vt 0.625000 0.500000
vt 0.625000 0.729167
vt 0.375000 0.729167
vt 0.375000 0.750000
vt 0.625000 0.750000
vt 0.375000 0.520833
vt 0.625000 0.520833
vt 0.375000 1.000000
vt 0.625000 1.000000
vt 0.125000 0.729167
vt 0.125000 0.750000
vt 0.125000 0.500000
vt 0.125000 0.520833
vt 0.875000 0.729167
vt 0.875000 0.750000
vt 0.875000 0.520833
vt 0.875000 0.500000
s 0
usemtl Black
f 63/67/11 64/68/11 62/69/11 61/70/11
f 57/71/11 60/72/11 59/73/11 58/74/11
f 61/70/12 69/75/12 71/76/12 63/67/12
f 67/77/13 66/78/13 65/79/13 68/80/13
f 70/81/13 72/82/13 71/76/13 69/75/13
f 65/79/14 58/83/14 59/84/14 68/80/14
f 66/78/15 57/85/15 58/86/15 65/79/15
f 61/87/15 62/88/15 70/81/15 69/75/15
f 60/89/16 67/77/16 68/80/16 59/90/16
f 72/82/16 64/91/16 63/92/16 71/76/16
o Cube.002
v -14.000000 0.000000 5.000000
v -14.000000 0.000000 6.000000
v -14.000000 3.000000 6.000000
v -14.000000 3.000000 5.000000
v -14.000000 0.000000 -6.000000
v -14.000000 0.000000 -5.000000
v -14.000000 3.000000 -6.000000
v -14.000000 3.000000 -5.000000
v -12.000000 0.000000 6.000000
v -12.000000 0.000000 5.000000
v -12.000000 3.000000 5.000000
v -12.000000 3.000000 6.000000
v -12.000000 0.000000 -6.000000
v -12.000000 0.000000 -5.000000
v -12.000000 3.000000 -6.000000
v -12.000000 3.000000 -5.000000
vn 1.0000 -0.0000 -0.0000
vn -0.0000 -0.0000 1.0000
vn -1.0000 -0.0000 -0.0000
vn -0.0000 -0.0000 -1.0000
vn -0.0000 1.0000 -0.0000
vn -0.0000 -1.0000 -0.0000
vt 0.625000 0.250000
vt 0.625000 0.229167
vt 0.375000 0.229167
vt 0.375000 0.250000
vt 0.375000 0.020833
vt 0.625000 0.020833
vt 0.625000 0.000000
vt 0.375000 0.000000
vt 0.375000 0.500000
vt 0.625000 0.500000
vt 0.625000 0.729167
vt 0.375000 0.729167
vt 0.375000 0.750000
vt 0.625000 0.750000
vt 0.375000 0.520833
vt 0.625000 0.520833
vt 0.375000 1.000000
vt 0.625000 1.000000
vt 0.125000 0.729167
vt 0.125000 0.750000
vt 0.125000 0.500000
vt 0.125000 0.520833
vt 0.875000 0.729167
vt 0.875000 0.750000
vt 0.875000 0.520833
vt 0.875000 0.500000
s 0
usemtl Black
f 79/93/17 80/94/17 78/95/17 77/96/17
f 73/97/17 76/98/17 75/99/17 74/100/17
f 77/96/18 85/101/18 87/102/18 79/93/18
f 83/103/19 82/104/19 81/105/19 84/106/19
f 86/107/19 88/108/19 87/102/19 85/101/19
f 81/105/20 74/109/20 75/110/20 84/106/20
f 82/104/21 73/111/21 74/112/21 81/105/21
f 77/113/21 78/114/21 86/107/21 85/101/21
f 76/115/22 83/103/22 84/106/22 75/116/22
f 88/108/22 80/117/22 79/118/22 87/102/22
o Plane.004
v -15.000000 5.000000 -5.000000
v -15.000000 5.000000 5.000000
v -15.000000 0.000000 -5.000000
v -15.000000 0.000000 5.000000
vn 1.0000 -0.0000 -0.0000
vt 0.000000 0.000000
vt 1.000000 0.000000
vt 1.000000 1.000000
vt 0.000000 1.000000
s 1
usemtl Walls
f 89/119/23 90/120/23 92/121/23 91/122/23
o Cube.003
v -15.000000 -0.025701 -4.899643
v -15.000000 0.243786 -4.899643
v -15.000000 -0.025701 -5.026216
v -15.000000 0.243786 -5.026216
v 15.000000 -0.025701 -4.899643
v 15.000000 0.243786 -4.899643
v 15.000000 -0.025701 -5.026216
v 15.000000 0.243786 -5.026216
v 4.000000 0.243786 -5.026216
v 2.000000 0.243786 -5.026216
v 4.000000 -0.025701 -5.026216
v 2.000000 -0.025701 -5.026216
v 4.000000 0.243786 -4.899643
v 2.000000 0.243786 -4.899643
v 4.000000 -0.025701 -4.899643
v 2.000000 -0.025701 -4.899643
v -4.000000 0.243786 -5.026216
v -6.000000 0.243786 -5.026216
v -4.000000 -0.025701 -5.026216
v -6.000000 -0.025701 -5.026216
v -4.000000 -0.025701 -4.899643
v -6.000000 -0.025701 -4.899643
v -4.000000 0.243786 -4.899643
v -6.000000 0.243786 -4.899643
v -12.000001 0.243786 -5.026216
v -14.000001 0.243786 -5.026216
v -14.000001 -0.025701 -5.026216
v -12.000001 -0.025701 -5.026216
v -12.000001 -0.025701 -4.899643
v -14.000001 -0.025701 -4.899643
v -14.000001 0.243786 -4.899643
v -12.000001 0.243786 -4.899643
vn -1.0000 -0.0000 -0.0000
vn -0.0000 -0.0000 -1.0000
vn 1.0000 -0.0000 -0.0000
vn -0.0000 -0.0000 1.0000
vn -0.0000 -1.0000 -0.0000
vn -0.0000 1.0000 -0.0000
vt 0.375000 0.000000
vt 0.625000 0.000000
vt 0.625000 0.250000
vt 0.375000 0.250000
vt 0.625000 0.500000
vt 0.375000 0.500000
vt 0.375000 0.408333
vt 0.625000 0.408333
vt 0.625000 0.391667
vt 0.375000 0.391667
vt 0.375000 0.341667
vt 0.625000 0.341667
vt 0.625000 0.325000
vt 0.375000 0.325000
vt 0.375000 0.275000
vt 0.625000 0.275000
vt 0.625000 0.258333
vt 0.375000 0.258333
vt 0.625000 0.750000
vt 0.375000 0.750000
vt 0.375000 0.858333
vt 0.625000 0.858333
vt 0.625000 0.908333
vt 0.375000 0.908333
vt 0.375000 0.925000
vt 0.625000 0.925000
vt 0.625000 0.975000
vt 0.375000 0.975000
vt 0.625000 1.000000
vt 0.375000 1.000000
vt 0.375000 0.991667
vt 0.625000 0.991667
vt 0.625000 0.841667
vt 0.375000 0.841667
vt 0.283333 0.500000
vt 0.283333 0.750000
vt 0.266667 0.500000
vt 0.266667 0.750000
vt 0.216667 0.750000
vt 0.216667 0.500000
vt 0.200000 0.500000
vt 0.200000 0.750000
vt 0.150000 0.750000
vt 0.150000 0.500000
vt 0.125000 0.750000
vt 0.125000 0.500000
vt 0.133333 0.500000
vt 0.133333 0.750000
vt 0.733333 0.750000
vt 0.733333 0.500000
vt 0.783333 0.500000
vt 0.783333 0.750000
vt 0.800000 0.750000
vt 0.800000 0.500000
vt 0.850000 0.500000
vt 0.850000 0.750000
vt 0.875000 0.500000
vt 0.875000 0.750000
vt 0.866667 0.750000
vt 0.866667 0.500000
vt 0.716667 0.750000
vt 0.716667 0.500000
vt 0.403968 0.227076
vt 0.381511 0.227076
vt 0.381511 0.229713
vt 0.403968 0.229713
vt 0.403968 0.522924
vt 0.403968 0.520287
vt 0.381511 0.520287
vt 0.381511 0.522924
vt 0.381511 0.229713
vt 0.403968 0.229713
vt 0.403968 0.227076
vt 0.381511 0.227076
vt 0.403968 0.522924
vt 0.403968 0.520287
vt 0.381511 0.520287
vt 0.381511 0.522924
vt 0.403968 0.227076
vt 0.381511 0.227076
vt 0.381511 0.229713
vt 0.403968 0.229713
vt 0.381511 0.520287
s 0
usemtl Skirting
f 93/123/24 94/124/24 96/125/24 95/126/24
f 100/127/25 99/128/25 103/129/25 101/130/25
f 102/131/25 104/132/25 111/133/25 109/134/25
f 110/135/25 112/136/25 120/137/25 117/138/25
f 95/126/25 96/125/25 118/139/25 119/140/25
f 99/128/26 100/127/26 98/141/26 97/142/26
f 108/143/27 106/144/27 115/145/27 113/146/27
f 114/147/27 116/148/27 124/149/27 121/150/27
f 94/151/27 93/152/27 122/153/27 123/154/27
f 97/142/27 98/141/27 105/155/27 107/156/27
f 103/157/28 99/128/28 97/142/28 107/158/28
f 104/159/28 108/160/28 113/161/28 111/162/28
f 112/163/28 114/164/28 121/165/28 120/166/28
f 93/167/28 95/168/28 119/169/28 122/170/28
f 106/171/29 102/172/29 109/173/29 115/174/29
f 116/175/29 110/176/29 117/177/29 124/178/29
f 96/179/29 94/180/29 123/181/29 118/182/29
f 105/183/29 98/141/29 100/127/29 101/184/29
f 106/185/26 108/186/26 104/187/26 102/188/26
f 105/189/24 101/190/24 103/191/24 107/192/24
f 112/193/26 110/194/26 116/195/26 114/196/26
f 115/197/24 109/198/24 111/199/24 113/200/24
f 123/201/26 122/202/26 119/203/26 118/204/26
f 120/205/24 121/192/24 124/197/24 117/190/24
o Cube.004
v -15.000000 -0.025701 5.026217
v -15.000000 0.243786 5.026217
v -15.000000 -0.025701 4.899644
v -15.000000 0.243786 4.899644
v 15.000000 -0.025701 5.026217
v 15.000000 0.243786 5.026217
v 15.000000 -0.025701 4.899644
v 15.000000 0.243786 4.899644
v 4.000000 0.243786 4.899644
v 2.000000 0.243786 4.899644
v 2.000000 -0.025701 4.899644
v 4.000000 -0.025701 4.899644
v 2.000000 0.243786 5.026217
v 4.000000 0.243786 5.026217
v 4.000000 -0.025701 5.026217
v 2.000000 -0.025701 5.026217
v -4.000000 0.243786 4.899644
v -6.000000 0.243786 4.899644
v -6.000000 -0.025701 4.899644
v -4.000000 -0.025701 4.899644
v -4.000000 0.243786 5.026217
v -6.000000 0.243786 5.026217
v -6.000000 -0.025701 5.026217
v -4.000000 -0.025701 5.026217
v -12.000001 0.243786 4.899644
v -14.000001 0.243786 4.899644
v -14.000001 -0.025701 4.899644
v -12.000001 -0.025701 4.899644
v -14.000001 -0.025701 5.026217
v -12.000001 -0.025701 5.026217
v -14.000001 0.243786 5.026217
v -12.000001 0.243786 5.026217
vn -1.0000 -0.0000 -0.0000
vn -0.0000 -0.0000 -1.0000
vn 1.0000 -0.0000 -0.0000
vn -0.0000 -0.0000 1.0000
vn -0.0000 -1.0000 -0.0000
vn -0.0000 1.0000 -0.0000
vt 0.375000 0.000000
vt 0.625000 0.000000
vt 0.625000 0.250000
vt 0.375000 0.250000
vt 0.625000 0.500000
vt 0.375000 0.500000
vt 0.375000 0.408333
vt 0.625000 0.408333
vt 0.625000 0.391667
vt 0.375000 0.391667
vt 0.375000 0.341667
vt 0.625000 0.341667
vt 0.625000 0.325000
vt 0.375000 0.325000
vt 0.375000 0.275000
vt 0.625000 0.275000
vt 0.625000 0.258333
vt 0.375000 0.258333
vt 0.625000 0.750000
vt 0.375000 0.750000
vt 0.375000 0.925000
vt 0.625000 0.925000
vt 0.625000 0.975000
vt 0.375000 0.975000
vt 0.625000 1.000000
vt 0.375000 1.000000
vt 0.375000 0.991667
vt 0.625000 0.991667
vt 0.375000 0.908333
vt 0.375000 0.858333
vt 0.625000 0.858333
vt 0.625000 0.908333
vt 0.625000 0.841667
vt 0.375000 0.841667
vt 0.283333 0.500000
vt 0.283333 0.750000
vt 0.266667 0.500000
vt 0.266667 0.750000
vt 0.216667 0.750000
vt 0.216667 0.500000
vt 0.200000 0.500000
vt 0.200000 0.750000
vt 0.150000 0.750000
vt 0.150000 0.500000
vt 0.125000 0.750000
vt 0.125000 0.500000
vt 0.133333 0.500000
vt 0.133333 0.750000
vt 0.733333 0.750000
vt 0.733333 0.500000
vt 0.783333 0.500000
vt 0.783333 0.750000
vt 0.800000 0.750000
vt 0.800000 0.500000
vt 0.850000 0.500000
vt 0.850000 0.750000
vt 0.875000 0.500000
vt 0.875000 0.750000
vt 0.866667 0.750000
vt 0.866667 0.500000
vt 0.716667 0.750000
vt 0.716667 0.500000
vt 0.403968 0.020287
vt 0.381511 0.020287
vt 0.381511 0.022924
vt 0.403968 0.022924
vt 0.403968 0.729713
vt 0.403968 0.727076
vt 0.381511 0.727076
vt 0.381511 0.729713
s 0
usemtl Skirting
f 125/206/30 126/207/30 128/208/30 127/209/30
f 132/210/31 131/211/31 136/212/31 133/213/31
f 134/214/31 135/215/31 144/216/31 141/217/31
f 142/218/31 143/219/31 152/220/31 149/221/31
f 127/209/31 128/208/31 150/222/31 151/223/31
f 131/211/32 132/210/32 130/224/32 129/225/32
f 147/226/33 146/227/33 156/228/33 154/229/33
f 126/230/33 125/231/33 153/232/33 155/233/33
f 148/234/33 140/235/33 137/236/33 145/237/33
f 129/225/33 130/224/33 138/238/33 139/239/33
f 136/240/34 131/211/34 129/225/34 139/241/34
f 135/242/34 140/243/34 148/244/34 144/245/34
f 143/246/34 147/247/34 154/248/34 152/249/34
f 125/250/34 127/251/34 151/252/34 153/253/34
f 137/254/35 134/255/35 141/256/35 145/257/35
f 146/258/35 142/259/35 149/260/35 156/261/35
f 128/262/35 126/263/35 155/264/35 150/265/35
f 138/266/35 130/224/35 132/210/35 133/267/35
f 137/268/32 140/269/32 135/270/32 134/271/32
f 138/272/30 133/273/30 136/274/30 139/275/30
f 146/268/32 147/269/32 143/270/32 142/271/32
f 144/274/30 148/275/30 145/272/30 141/273/30
f 151/270/32 150/271/32 155/268/32 153/269/32
f 156/272/30 149/273/30 152/274/30 154/275/30
o Cube.008
v -14.924356 -0.025701 5.000000
v -14.924356 0.243786 5.000000
v -15.050929 -0.025701 5.000000
v -15.050929 0.243786 5.000000
v -14.924357 -0.025701 -5.000000
v -14.924357 0.243786 -5.000000
v -15.050930 -0.025701 -5.000000
v -15.050930 0.243786 -5.000000
vn -0.0000 -0.0000 1.0000
vn -1.0000 -0.0000 -0.0000
vn -0.0000 -0.0000 -1.0000
vn 1.0000 -0.0000 -0.0000
vn -0.0000 -1.0000 -0.0000
vn -0.0000 1.0000 -0.0000
vt 0.375000 0.000000
vt 0.625000 0.000000
vt 0.625000 0.250000
vt 0.375000 0.250000
vt 0.625000 0.500000
vt 0.375000 0.500000
vt 0.625000 0.750000
vt 0.375000 0.750000
vt 0.625000 1.000000
vt 0.375000 1.000000
vt 0.125000 0.500000
vt 0.125000 0.750000
vt 0.875000 0.500000
vt 0.875000 0.750000
s 0
usemtl Skirting
f 157/276/36 158/277/36 160/278/36 159/279/36
f 159/279/37 160/278/37 164/280/37 163/281/37
f 163/281/38 164/280/38 162/282/38 161/283/38
f 161/283/39 162/282/39 158/284/39 157/285/39
f 159/286/40 163/281/40 161/283/40 157/287/40
f 164/280/41 160/288/41 158/289/41 162/282/41
